<svg xmlns="http://www.w3.org/2000/svg" xmlns:xlink="http://www.w3.org/1999/xlink" width="500" zoomAndPan="magnify" viewBox="0 0 375 374.999991" height="500" preserveAspectRatio="xMidYMid meet" version="1.0"><defs><g/><clipPath id="d976b0f299"><path d="M 0.550781 0.550781 L 375 0.550781 L 375 375 L 0.550781 375 Z M 0.550781 0.550781 " clip-rule="nonzero"/></clipPath><clipPath id="d8ae35e8cd"><path d="M 375 187.777344 C 375 291.175781 291.175781 375 187.773438 375 C 84.375 375 0.550781 291.175781 0.550781 187.777344 C 0.550781 84.375 84.375 0.550781 187.773438 0.550781 C 291.175781 0.550781 375 84.375 375 187.777344 Z M 375 187.777344 " clip-rule="nonzero"/></clipPath></defs><g clip-path="url(#d976b0f299)"><g clip-path="url(#d8ae35e8cd)"><path fill="#000000" d="M 0.550781 0.550781 L 375 0.550781 L 375 375 L 0.550781 375 Z M 0.550781 0.550781 " fill-opacity="1" fill-rule="nonzero"/></g></g><g fill="#ffffff" fill-opacity="1"><g transform="translate(80.916497, 301.502958)"><g><path d="M 85.523438 -246.464844 C 83.164062 -251.851562 80.472656 -256.566406 77.105469 -259.933594 C 73.738281 -263.300781 70.035156 -265.65625 66.328125 -267.339844 C 62.289062 -269.023438 58.25 -270.035156 54.207031 -270.371094 C 49.832031 -270.707031 45.792969 -270.707031 41.75 -270.707031 C 35.691406 -270.035156 30.304688 -268.351562 25.253906 -265.65625 C 19.867188 -262.964844 15.488281 -259.257812 11.785156 -255.21875 C 8.082031 -251.179688 5.050781 -246.464844 3.03125 -241.078125 C 1.011719 -235.691406 0 -229.964844 0 -224.578125 C 0 -219.191406 1.347656 -215.152344 4.378906 -212.457031 C 7.40625 -209.765625 10.773438 -208.082031 14.140625 -208.082031 C 17.507812 -207.746094 20.539062 -208.753906 23.230469 -210.773438 C 25.925781 -212.792969 26.9375 -216.160156 26.261719 -220.203125 C 25.589844 -222.222656 24.914062 -223.570312 24.242188 -224.917969 C 23.230469 -226.261719 22.222656 -227.273438 20.875 -227.945312 C 19.527344 -228.621094 18.183594 -229.292969 16.835938 -229.964844 C 15.488281 -230.640625 14.140625 -231.3125 13.132812 -232.324219 C 10.773438 -234.007812 10.101562 -236.699219 11.449219 -240.402344 C 12.457031 -243.769531 14.816406 -247.476562 18.183594 -250.84375 C 21.550781 -254.210938 25.589844 -257.574219 30.304688 -260.269531 C 35.015625 -262.964844 39.730469 -263.972656 44.78125 -263.972656 C 48.148438 -263.636719 51.179688 -262.625 54.546875 -260.605469 C 57.574219 -258.585938 60.269531 -255.21875 62.964844 -250.503906 C 65.320312 -245.792969 67.339844 -239.730469 68.6875 -232.324219 C 70.035156 -224.578125 71.042969 -215.152344 71.378906 -204.378906 C 71.378906 -198.988281 71.71875 -193.265625 71.71875 -186.53125 L 71.71875 -164.984375 C 69.023438 -165.992188 66.667969 -166.667969 63.972656 -167.003906 C 61.28125 -167.003906 58.25 -167.003906 55.21875 -166.667969 C 58.585938 -164.308594 61.28125 -161.617188 63.300781 -158.585938 C 65.320312 -155.554688 67.003906 -152.527344 68.351562 -149.160156 C 69.695312 -145.792969 70.371094 -142.425781 71.042969 -139.058594 C 71.378906 -135.691406 71.71875 -132.996094 71.71875 -130.304688 L 71.71875 -83.164062 C 71.71875 -71.378906 70.371094 -63.636719 67.675781 -59.933594 C 64.984375 -56.230469 61.953125 -56.230469 58.921875 -59.597656 C 58.921875 -56.230469 59.597656 -53.871094 60.941406 -52.1875 C 62.289062 -50.503906 63.972656 -49.496094 65.992188 -48.820312 C 67.675781 -48.148438 69.359375 -47.8125 71.042969 -47.8125 C 72.390625 -47.8125 73.402344 -48.148438 73.738281 -48.820312 C 75.757812 -52.863281 79.460938 -56.902344 84.847656 -61.28125 C 89.898438 -65.320312 94.949219 -68.011719 100 -69.359375 C 99.328125 -69.695312 98.988281 -70.707031 98.988281 -72.054688 C 98.652344 -73.402344 98.316406 -74.746094 98.316406 -75.421875 L 98.316406 -91.582031 C 100 -91.582031 101.683594 -92.257812 103.03125 -93.601562 C 104.378906 -94.949219 105.050781 -96.296875 105.386719 -98.316406 C 109.765625 -98.988281 113.46875 -101.011719 116.835938 -104.378906 C 119.867188 -107.746094 121.550781 -110.773438 122.222656 -114.140625 C 118.183594 -112.792969 115.152344 -113.46875 113.132812 -116.160156 C 111.109375 -118.855469 109.765625 -122.558594 109.425781 -126.9375 C 108.753906 -131.3125 109.425781 -135.691406 110.773438 -140.402344 C 112.121094 -144.78125 114.476562 -147.8125 117.84375 -149.832031 C 121.210938 -151.851562 125.589844 -151.515625 130.976562 -149.496094 C 136.363281 -147.476562 143.097656 -142.085938 151.179688 -133.332031 C 159.933594 -123.234375 165.992188 -112.121094 170.035156 -100 C 174.074219 -87.878906 175.757812 -75.757812 175.421875 -63.972656 C 175.085938 -51.851562 173.0625 -40.742188 169.023438 -29.964844 C 164.984375 -19.191406 159.933594 -10.4375 153.199219 -3.367188 C 146.464844 4.039062 138.382812 8.753906 129.292969 11.109375 C 120.203125 13.46875 110.4375 12.121094 100.335938 7.40625 C 94.277344 4.714844 89.898438 1.347656 87.207031 -3.367188 C 84.511719 -8.082031 83.164062 -12.792969 83.5 -17.84375 C 83.839844 -22.894531 85.523438 -27.945312 88.890625 -32.660156 C 91.917969 -37.375 96.296875 -40.742188 102.019531 -43.433594 C 108.417969 -46.128906 114.140625 -46.464844 119.527344 -43.769531 C 120.203125 -43.433594 120.875 -43.097656 121.550781 -42.761719 C 122.222656 -42.085938 122.894531 -41.75 123.90625 -41.414062 C 124.578125 -40.742188 125.253906 -40.066406 125.925781 -39.394531 C 126.597656 -38.71875 127.609375 -37.710938 128.621094 -37.035156 C 131.3125 -42.425781 132.324219 -47.8125 131.648438 -52.863281 C 130.304688 -57.574219 127.273438 -61.28125 123.234375 -63.300781 C 115.824219 -66.328125 107.746094 -65.65625 98.988281 -60.941406 C 89.5625 -56.230469 82.492188 -49.160156 77.105469 -39.730469 C 76.769531 -39.058594 76.429688 -38.71875 76.429688 -38.382812 C 76.09375 -38.046875 75.757812 -37.710938 75.757812 -37.375 C 73.738281 -40.066406 70.371094 -42.425781 65.992188 -44.445312 C 61.617188 -46.464844 57.238281 -47.476562 52.523438 -48.148438 C 47.8125 -48.820312 43.097656 -48.484375 39.058594 -47.8125 C 34.679688 -47.136719 31.648438 -45.453125 29.628906 -43.433594 C 37.710938 -44.109375 44.445312 -42.761719 49.496094 -39.730469 C 54.207031 -36.699219 58.25 -32.996094 61.617188 -28.28125 C 64.984375 -23.570312 67.675781 -18.855469 69.695312 -13.46875 C 71.71875 -8.082031 74.074219 -3.703125 76.769531 0 C 80.132812 5.386719 84.511719 9.425781 90.574219 12.792969 C 95.285156 15.824219 100.671875 17.84375 106.0625 18.519531 C 111.449219 19.527344 116.5 20.203125 121.550781 20.539062 C 126.261719 21.210938 130.976562 21.886719 135.691406 22.558594 C 140.066406 23.230469 144.109375 24.914062 147.476562 27.273438 C 150.167969 29.292969 153.199219 30.976562 156.566406 32.324219 C 159.933594 33.671875 163.300781 34.679688 167.003906 35.355469 C 170.707031 36.027344 174.410156 35.691406 178.453125 35.015625 C 182.15625 34.34375 185.859375 32.996094 189.898438 30.304688 C 186.53125 30.640625 183.839844 29.964844 182.15625 27.945312 C 180.472656 26.261719 179.460938 24.242188 179.125 21.550781 C 178.453125 19.191406 178.789062 16.5 179.460938 13.804688 C 180.136719 11.109375 181.480469 8.753906 183.5 6.734375 C 192.929688 -2.695312 199.664062 -13.46875 204.378906 -24.914062 C 209.089844 -36.363281 211.449219 -47.8125 211.785156 -59.597656 C 212.121094 -71.378906 210.4375 -83.164062 207.070312 -94.949219 C 203.703125 -106.398438 198.652344 -117.507812 192.59375 -127.609375 C 186.195312 -137.710938 178.453125 -147.136719 169.695312 -155.554688 C 160.941406 -163.636719 151.179688 -170.371094 141.078125 -175.757812 C 140.402344 -175.757812 140.066406 -175.757812 139.730469 -176.429688 C 145.117188 -181.480469 150.167969 -185.183594 155.21875 -187.207031 C 160.269531 -189.226562 164.984375 -191.246094 169.695312 -192.59375 C 174.410156 -193.941406 178.453125 -195.625 182.492188 -197.644531 C 186.53125 -199.664062 189.898438 -203.367188 192.59375 -208.753906 C 194.613281 -212.792969 195.960938 -216.5 196.632812 -219.867188 C 197.304688 -223.234375 195.625 -226.597656 191.917969 -230.640625 C 192.59375 -227.609375 192.929688 -224.917969 192.257812 -222.558594 C 191.582031 -220.203125 189.5625 -218.855469 186.867188 -218.855469 C 182.15625 -218.519531 177.441406 -220.875 173.0625 -226.261719 C 168.6875 -231.648438 164.308594 -237.375 159.933594 -243.769531 C 155.554688 -250.167969 151.179688 -256.230469 146.800781 -261.617188 C 142.085938 -267.003906 137.710938 -270.035156 133.332031 -270.707031 C 129.292969 -271.042969 125.589844 -270.371094 122.222656 -268.351562 C 118.855469 -266.332031 115.488281 -263.972656 112.457031 -261.28125 C 109.089844 -258.585938 106.398438 -255.554688 103.703125 -252.527344 C 101.011719 -249.160156 98.316406 -246.800781 96.296875 -244.78125 C 93.941406 -242.761719 91.917969 -241.75 90.234375 -241.75 C 88.214844 -241.75 86.867188 -243.097656 85.523438 -246.464844 Z M 98.316406 -132.324219 L 98.316406 -212.457031 C 98.316406 -221.886719 98.652344 -228.621094 100 -233.332031 C 101.011719 -237.710938 102.695312 -240.402344 104.714844 -241.75 C 107.746094 -243.433594 110.773438 -243.769531 113.804688 -242.425781 C 116.835938 -241.078125 119.867188 -238.722656 123.234375 -235.691406 C 126.261719 -232.660156 129.292969 -229.292969 132.324219 -225.253906 C 135.355469 -221.210938 138.382812 -217.171875 141.75 -213.46875 C 144.78125 -209.429688 147.8125 -206.398438 150.84375 -203.703125 C 153.871094 -201.011719 156.902344 -199.328125 160.269531 -198.988281 C 155.21875 -198.316406 149.160156 -195.625 142.425781 -191.246094 C 135.691406 -186.53125 128.957031 -181.144531 122.558594 -174.746094 C 116.160156 -168.351562 110.773438 -161.28125 106.0625 -153.871094 C 101.347656 -146.128906 98.988281 -139.058594 98.316406 -132.324219 Z M 98.316406 -132.324219 "/></g></g></g></svg>